<svg xmlns="http://www.w3.org/2000/svg" width="24" height="24" fill="none"><g clip-path="url(#a)"><path fill="#fff" d="M3.117 23.3V2.632c5.723.413 11.471.426 17.196.04.315-.02.572.195.572.483v19.622c0 .29-.255.542-.572.563-5.726.386-11.472.373-17.196-.04Z"/><path fill="#D7DAE0" d="M3.117 23.297V2.629A105.695 105.695 0 0 1 18.742.38c.286-.02.519.2.519.489v19.622a.564.564 0 0 1-.52.557 105.696 105.696 0 0 0-15.624 2.248Z"/><path stroke="#fff" stroke-linecap="round" stroke-linejoin="round" stroke-miterlimit="10" stroke-width="1.125" d="M5.39 9.251a105.361 105.361 0 0 1 11.596-1.639M5.39 11.855c1.646-.326 3.3-.614 4.959-.862m-4.96 3.465c1.647-.327 3.3-.614 4.96-.863m-4.96 6.2a105.374 105.374 0 0 1 11.596-1.64M5.39 17.062c1.646-.326 3.3-.614 4.959-.862"/><path fill="#fff" d="M12.161 16.416c1.538-.203 3.08-.37 4.626-.505a.561.561 0 0 0 .504-.551v-5.134a.457.457 0 0 0-.504-.465c-1.541.133-3.082.302-4.626.505a.6.6 0 0 0-.506.575v5.134a.434.434 0 0 0 .506.44Zm-6.45-9.777c.381-.075.76-.146 1.14-.215a.633.633 0 0 0 .505-.6V4.507c0-.28-.227-.466-.505-.416-.38.07-.759.143-1.14.216a.647.647 0 0 0-.504.607v1.317c-.002.28.225.463.504.408Zm2.993-.54c.38-.063.76-.123 1.14-.182a.612.612 0 0 0 .506-.585V4.016a.425.425 0 0 0-.506-.431c-.38.058-.761.12-1.14.182a.623.623 0 0 0-.504.592v1.317c0 .28.225.47.504.423Zm2.994-.452c.38-.052.761-.1 1.14-.15a.59.59 0 0 0 .507-.57V3.611a.439.439 0 0 0-.507-.446c-.38.047-.761.097-1.14.15a.601.601 0 0 0-.506.577V5.21a.434.434 0 0 0 .506.438Z"/></g><defs><clipPath id="a"><path fill="#fff" d="M0 0h24v24H0z"/></clipPath></defs></svg>